<svg xmlns="http://www.w3.org/2000/svg" viewBox="0 0 640 420" fill="none"><rect width="640" height="420" fill="#F5F0E5"/><circle cx="500" cy="105" r="66" fill="#D59A76"/><path d="M0 302c93-62 175-73 248-34 72 39 126 28 177-13 58-47 130-51 215 3v162H0V302Z" fill="#183B4A"/><path d="M0 342c105-31 184-23 245 9 61 32 151 35 264-7 53-20 97-21 131 1v75H0v-78Z" fill="#304C55"/><path d="M82 228c46-72 83-107 112-104 29 3 61 39 96 108M293 248c42-90 79-133 112-129 33 4 66 47 99 129" stroke="#657D78" stroke-width="4"/></svg>
